<svg xmlns="http://www.w3.org/2000/svg" width="48" height="48" fill="none"><path fill="#001E60" d="M14.43 12.394h10.538v4.215H14.43v-4.215Zm-1.054 6.323h12.646c.582 0 1.054-.472 1.054-1.054V11.34c0-.582-.472-1.053-1.054-1.053H13.376c-.582 0-1.054.471-1.054 1.053v6.323c0 .582.472 1.054 1.054 1.054ZM19.699 31.413c-.546 0-1.097-.331-1.097-1.071 0-.704.569-1.576 1.089-2.32.519.74 1.104 1.62 1.104 2.32 0 .74-.551 1.07-1.096 1.07Zm.953-5.771c-.373-.79-1.497-.811-1.893-.026-.498.983-2.264 2.723-2.264 4.726 0 1.812 1.377 3.178 3.204 3.178 1.826 0 3.204-1.366 3.204-3.178 0-2.004-1.802-3.75-2.251-4.7Z"/><path fill="#001E60" d="M37.614 20.824v-6.11l1.169.779c.588.392.938 1.047.938 1.754v3.577h-2.107Zm-27.399 2.037h18.968v12.716H10.215V22.861Zm21.076 17.002H8.107v-2.178h23.184v2.178ZM11.269 8.108H28.13c.581 0 1.053.473 1.053 1.054v11.592H10.215V9.162c0-.581.473-1.054 1.054-1.054Zm28.683 5.632-4.915-3.277a1.055 1.055 0 0 0-1.169 1.754l1.638 1.092v8.569c0 .582.472 1.053 1.054 1.053h3.161v8.431a2.11 2.11 0 0 1-2.107 2.108 2.11 2.11 0 0 1-2.108-2.108V28.2a3.165 3.165 0 0 0-3.161-3.161h-1.054V9.162A3.165 3.165 0 0 0 28.13 6H11.269a3.165 3.165 0 0 0-3.161 3.162v26.415H7.054c-.582 0-1.054.472-1.054 1.054v4.285c0 .582.472 1.054 1.054 1.054h25.291c.582 0 1.054-.472 1.054-1.054v-4.285c0-.582-.472-1.054-1.054-1.054h-1.054v-8.43h1.054c.581 0 1.054.472 1.054 1.053v3.162a4.22 4.22 0 0 0 4.215 4.215 4.22 4.22 0 0 0 4.215-4.215V17.247a4.206 4.206 0 0 0-1.877-3.507"/></svg>