<svg xmlns="http://www.w3.org/2000/svg" width="48" height="48" fill="none"><path fill="#001E60" d="M38.24 31.291c0 .035-.007.069-.02.162h-.396c-8.74 0-17.48-.002-26.218.006-.302.001-.416-.088-.49-.379a38.973 38.973 0 0 1-1.04-6.065 4.783 4.783 0 0 1 .43-2.436c1.959-4.313 3.906-8.633 5.903-12.929.789-1.697 2.205-2.571 4.076-2.581 4.428-.024 8.857-.014 13.285-.006 2.427.005 4.45 1.941 4.46 4.354.029 6.624.01 13.249.01 19.874Zm-.012 9.749h-.366c-5.768 0-11.537-.039-17.305.015-2.781.025-4.877-1.13-6.493-3.306-.726-.975-1.284-2.045-1.761-3.159-.027-.062-.045-.128-.085-.242h.443l23.12.002c.145 0 .29.004.435-.002.658.002 1.319 0 2.012 0v6.692Zm-26.655-8.511H38.22v.745c-.1.005-.211.016-.322.016l-1.616.001-.25-.002-23.578.002c-.724 0-.724 0-.881-.762Zm27.725-20.92c-.002-3.167-2.447-5.601-5.61-5.604a3540.94 3540.94 0 0 0-13.036.002c-2.492.007-4.267 1.161-5.316 3.422-.464 1-.916 2.005-1.373 3.008-1.473 3.234-2.95 6.466-4.417 9.702a5.832 5.832 0 0 0-.524 2.949 36.815 36.815 0 0 0 1.108 6.373c.673 2.507 1.58 4.914 3.16 7.013 1.307 1.733 2.945 2.982 5.109 3.446.295.064.59.119.887.177h19.668c.309-.191.352-.482.35-.819-.004-9.89 0-19.779-.006-29.669"/><path fill="#001E60" d="M35.773 19.077c-.001 1.42-.862 2.278-2.286 2.28l-17.164.001c-1.398 0-2.075-1.044-1.5-2.31.809-1.78 2.537-5.569 3.369-7.404l.028-.05c.126-.25.239-.51.353-.767.39-.878 1.07-1.3 2.027-1.3 4.346.003 8.693 0 13.04.002 1.288.001 2.133.853 2.135 2.147 0 2.467 0 4.934-.002 7.401ZM33.772 8.473c-4.452-.01-8.905-.015-13.357.004-1.186.005-2.083.583-2.663 1.62-.175.312-.315.645-.458.975l-.024.047c-.863 1.888-2.663 5.845-3.516 7.738a2.382 2.382 0 0 0-.132 1.585c.299 1.22 1.295 1.971 2.619 1.973 2.89.004 5.78.001 8.67.001 2.889 0 5.779.005 8.669-.002 1.825-.004 3.227-1.326 3.245-3.106.026-2.608.026-5.216 0-7.824a3.035 3.035 0 0 0-3.053-3.01M32.896 26.881c-.81.006-1.618.001-2.427.001v-.002c-.81 0-1.618.004-2.427 0-.62-.005-1.046-.394-1.05-.944-.004-.546.43-.96 1.037-.962 1.618-.005 3.237-.005 4.855 0 .609.001 1.045.405 1.05.95.004.546-.43.952-1.038.957Zm.014-2.965a725.797 725.797 0 0 0-4.894 0c-1.178.004-2.091.897-2.085 2.024.007 1.125.895 1.99 2.067 2 .82.005 1.643 0 2.464 0v.003c.822 0 1.643.005 2.465-.002 1.168-.01 2.062-.88 2.068-2 .007-1.125-.91-2.02-2.085-2.025Z"/></svg>