<svg xmlns="http://www.w3.org/2000/svg" width="48" height="48" fill="none"><path fill="#001E60" d="M24.643 41h-.17l-.103-.018c-.849-.185-1.243-.674-1.243-1.544v-2.346c-.597.345-1.163.67-1.725 1-.356.21-.73.307-1.14.198-.572-.153-.928-.53-1.043-1.102-.123-.615.142-1.172.675-1.483a414.239 414.239 0 0 1 3.073-1.774c.114-.065.164-.133.164-.271-.006-2.178-.004-4.355-.004-6.532v-.195l-.105.054c-1.913 1.105-3.825 2.212-5.741 3.314-.097.056-.125.115-.124.222.003 1.15.003 2.301.001 3.451 0 .117-.017.234-.028.351-.063.623-.684 1.285-1.577 1.19-.651-.068-1.221-.698-1.222-1.398V32.015l-.077.044c-.681.393-1.364.785-2.044 1.181a1.548 1.548 0 0 1-1.01.22c-.526-.067-.992-.471-1.147-1.016-.15-.523.023-1.155.452-1.447.45-.308.932-.568 1.402-.846.331-.195.665-.386 1.014-.588-.607-.35-1.192-.685-1.775-1.024-.563-.327-.862-.935-.737-1.49.235-1.04 1.252-1.475 2.181-.935.994.577 1.993 1.146 2.985 1.727.127.074.216.07.34-.002 1.708-.992 3.42-1.98 5.129-2.967.191-.111.381-.225.588-.347-.318-.184-.616-.356-.914-.53-1.624-.935-3.25-1.868-4.868-2.811-.15-.087-.248-.085-.39-.001-.968.567-1.94 1.126-2.911 1.686-.325.189-.67.258-1.047.185-.494-.098-.967-.535-1.073-1.04-.12-.565.017-1.069.482-1.423.326-.247.703-.431 1.059-.64.28-.167.562-.329.859-.502l-.179-.107c-.632-.367-1.266-.732-1.896-1.101-.645-.377-.894-1.19-.566-1.833.348-.684 1.132-.995 1.816-.682.4.182.77.426 1.154.644.385.22.769.443 1.173.677v-.21c0-.673-.003-1.347 0-2.02.005-.887.875-1.56 1.733-1.342.673.17 1.093.719 1.094 1.441.003 1.207.003 2.413-.002 3.62 0 .119.043.177.14.231 1.614.928 3.229 1.86 4.843 2.79l.974.561.012-.073c.001-2.273.002-4.546-.002-6.818l-.092-.152c-.364-.22-.733-.428-1.1-.642-.713-.415-1.434-.82-2.137-1.252-.481-.295-.707-.938-.56-1.468.266-.955 1.22-1.359 2.09-.88.352.193.696.4 1.044.6.245.14.491.28.76.431v-.212c0-.717-.005-1.436 0-2.154.004-.734.412-1.28 1.078-1.45l.17-.043.046-.005h.238l.077.018.02.009c.675.157 1.188.698 1.19 1.39.002.565.001 1.13.001 1.693v.756c.083-.044.146-.075.209-.11.526-.305 1.052-.611 1.58-.915.358-.206.735-.281 1.14-.155.58.182.928.584 1 1.177.074.601-.164 1.087-.697 1.397a402.828 402.828 0 0 1-3.115 1.802c-.092.054-.12.109-.12.21.003 2.205.003 4.41.003 6.617l.012.142.54-.311c1.754-1.013 3.506-2.026 5.262-3.033.136-.078.176-.164.175-.314-.005-1.134-.009-2.268.002-3.402.003-.23.033-.474.114-.686.227-.591.913-.942 1.55-.826.619.112 1.112.65 1.133 1.28.022.667.01 1.335.013 2.003v.21l.182-.103c.628-.361 1.257-.723 1.883-1.088a1.39 1.39 0 0 1 .971-.172c.605.108 1.031.556 1.15 1.182.098.517-.17 1.102-.66 1.403-.4.245-.81.473-1.216.709l-.884.514.074.048c.603.35 1.214.687 1.807 1.054.449.276.667.71.639 1.232-.06 1.091-1.195 1.692-2.143 1.148a569.741 569.741 0 0 1-3.059-1.77c-.101-.06-.176-.07-.283-.007-1.53.89-3.062 1.774-4.595 2.659l-1.33.767c.378.221.733.43 1.09.636 1.58.912 3.161 1.823 4.74 2.738.101.06.176.07.286.007a458.472 458.472 0 0 1 3.236-1.862 1.28 1.28 0 0 1 1.066-.104c.594.194.93.615.988 1.225a1.4 1.4 0 0 1-.644 1.303c-.326.211-.669.395-1.005.59l-.947.55.1.067 2.06 1.188c.479.276.738.693.745 1.244.01 1.072-1.145 1.755-2.093 1.238-.44-.24-.869-.502-1.303-.752-.276-.16-.552-.317-.844-.484v1.744c0 .135-.007.27-.02.404-.068.742-.707 1.281-1.456 1.26-.732-.02-1.35-.674-1.347-1.382.009-1.173.004-2.346-.001-3.519l-.086-.188c-.318-.196-.645-.379-.968-.565l-4.653-2.687c-.087-.05-.177-.098-.28-.155 0 2.252-.002 4.475.004 6.697l.103.163c.456.271.918.533 1.376.8.621.362 1.253.707 1.858 1.095.578.368.759 1.123.466 1.752-.285.61-.991.953-1.639.737-.36-.118-.689-.334-1.024-.52-.379-.208-.75-.431-1.146-.66v.188c0 .77.003 1.538-.002 2.307-.001.464-.178.86-.564 1.12-.186.126-.413.19-.626.275l-.112.022Z"/></svg>