<svg xmlns="http://www.w3.org/2000/svg" width="48" height="48" fill="none"><path fill="#001E60" d="M10.703 26.847H8.98c-1.174-.005-1.399-.223-1.402-1.37-.003-1.105 0-2.21 0-3.323H6.061v10.979h1.516c0-1.214.014-2.38-.004-3.547-.013-.818.374-1.18 1.178-1.161.636.014 1.274.003 1.95.003v-1.581ZM21.857 11.83c.972 0 1.847-.008 2.723.002 1.004.013 1.168.177 1.182 1.196.012.895.002 1.79.002 2.657h1.648c0-.886-.003-1.704 0-2.52.006-1.205.122-1.327 1.299-1.334.843-.005 1.687 0 2.575 0v-1.577h-9.43v1.576Zm18.975 9.485c0 1.041.002 1.978 0 2.915-.002.684-.352 1.026-1.031 1.03-.586.003-1.173-.016-1.758.005-.822.03-1.16-.345-1.149-1.163.025-1.876-.006-3.753.014-5.628.009-.802-.275-1.151-1.135-1.146-5.042.029-10.083.003-15.124.036-.378.002-.846.223-1.114.498-.776.795-1.565 1.607-2.179 2.526-.933 1.397-2.122 1.933-3.785 1.729-.981-.121-1.237.226-1.24 1.228-.007 2.463.008 4.924-.006 7.386-.013 2.55-.123 2.51 2.426 2.43.822-.025 1.37.259 1.872.884a56.013 56.013 0 0 0 2.877 3.32c.279.296.779.534 1.18.54 3.107.043 6.214.04 9.32.002.388-.005.866-.2 1.14-.47a225.207 225.207 0 0 0 5.236-5.333c.273-.287.497-.759.497-1.145.002-2.798-.158-2.528 2.697-2.53 1-.001 1.253.256 1.261 1.24.008.892.002 1.785.002 2.68h1.524V21.315h-1.525ZM44 32.577c0 .54-.304 1.048-.8 1.26a.921.921 0 0 1-.274.075c-.872.084-1.757.01-2.636.032-.763.018-1.05-.376-1.045-1.085.007-.905.002-1.811.002-2.714-.599-.268-.88-.109-.809.509.142 1.224-.404 2.104-1.259 2.93-1.665 1.61-3.274 3.277-4.876 4.949-.653.68-1.39 1.002-2.337.995a641.162 641.162 0 0 0-9.324-.002c-.95.007-1.692-.315-2.301-1.049a68.69 68.69 0 0 0-2.775-3.179c-.26-.275-.721-.363-1.092-.53l-.175-.003c-2.5.237-3.797-.906-3.559-3.58.032-.346.005-.697.005-1.114-.296-.02-.547-.044-.799-.053-.228-.008-.455-.002-.788-.002 0 1.207.006 2.341-.002 3.475-.007 1.033-.252 1.264-1.32 1.27-.416.003-1.534.003-2.38.002-.578 0-1.045-.469-1.045-1.045V21.555c0-.577.467-1.045 1.045-1.045.847-.001 1.965 0 2.382.002 1.091.006 1.314.233 1.32 1.358.004 1.083 0 2.166 0 3.318h1.588c0-.67-.007-1.364 0-2.057.016-1.545 1.055-2.723 2.572-2.585 1.45.13 2.367-.413 3.138-1.537.447-.648 1.062-1.178 1.526-1.816.8-1.099 1.824-1.56 3.183-1.453.984.078 1.98.015 3.025.015v-2.398c-.896 0-1.792.006-2.687-.002-1.042-.01-1.245-.209-1.254-1.225-.007-.792.008-1.584-.004-2.376-.01-.712.283-1.096 1.038-1.094 3.547.007 7.096.007 10.644.001.662 0 .977.333.986.965a75.69 75.69 0 0 1-.004 2.815c-.013.59-.33.914-.945.913-.821-.002-1.644-.027-2.462.025-.198.014-.52.28-.54.456-.069.602-.026 1.216-.026 1.92h6.22c.38 0 .764-.018 1.142.014 1.236.1 2.074.913 2.111 2.159.052 1.7.039 3.4.023 5.101-.006.552.17.772.818.563 0-.867.018-1.77-.005-2.672-.021-.796.29-1.211 1.13-1.187.85.024 1.707-.054 2.548.032a.94.94 0 0 1 .286.082c.49.22.791.72.791 1.256v11.474Z"/><path fill="#001E60" d="m23.349 36.196 2.154-6.543a.71.71 0 0 0-.677-.933h-2.983a.711.711 0 0 1-.638-1.023c.279-.571.54-1.108.808-1.642 1.122-2.25 2.286-4.481 3.355-6.756.332-.707.73-.932 1.48-.896.808.038 1.619.036 2.484.027a.885.885 0 0 1 .759 1.352l-3.58 5.756a.71.71 0 0 0 .604 1.086h2.47a.71.71 0 0 1 .574 1.126c-1.836 2.527-5.033 6.75-6.46 8.629-.137.18-.421.032-.35-.183"/></svg>