<svg xmlns="http://www.w3.org/2000/svg" width="48" height="48" fill="none"><path fill="#001E60" d="M38.783 9.711c-.567 2.741-1.137 5.482-1.705 8.223l-.169.809a1.22 1.22 0 0 0-.097.292c-.492 2.36-2.22 10.905-2.71 13.266-.242 1.166-.88 1.692-2.068 1.692H18.147c-.14 0-.283.001-.424-.014a1.874 1.874 0 0 1-1.619-1.374c-.188-.697.095-1.459.7-1.903.401-.295.86-.352 1.34-.352 3.18.002 6.36.006 9.54-.001 1.93-.003 3.331-1.099 3.711-2.92.883-4.225 1.752-8.453 2.627-12.68.4-1.934.796-3.871 1.204-5.804.226-1.065 1.171-1.704 2.163-1.486 1.038.228 1.62 1.164 1.394 2.252Zm-9.396 30.974-.006.079h-8.726c.732-1.759 1.443-3.473 2.165-5.183l.255-.166a244.04 244.04 0 0 1 3.921-.001l.26.161c.717 1.7 1.424 3.406 2.131 5.11Zm-14.646-9.323c-.76 2.913-1.507 5.829-2.263 8.743-.132.509-.354.668-.887.671-.424.003-.848.002-1.272 0-.744-.002-1.023-.362-.837-1.086a7005.06 7005.06 0 0 0 2.383-9.304c.043-.08.078-.171.106-.274.247-.932.485-1.866.731-2.798.27-1.023.74-1.384 1.787-1.385 3.274 0 6.55-.003 9.825.005.38.001.677-.111.943-.384 1.07-1.096 2.152-2.179 3.228-3.27.107-.108.212-.224.287-.355a.66.66 0 0 0-.144-.836c-.249-.211-.532-.253-.817-.081-.128.078-.24.189-.347.297-.979.987-1.96 1.972-2.929 2.969a.737.737 0 0 1-.582.247c-2.274-.009-4.547-.005-6.82-.006-.096 0-.19.004-.284-.006-.427-.047-.773-.402-.795-.813a.876.876 0 0 1 .717-.913c.137-.026.281-.022.422-.022 1.78-.001 3.558.009 5.337-.012.25-.003.564-.086.733-.251a282.684 282.684 0 0 0 3.947-3.95c.34-.343.34-.785.04-1.067-.289-.271-.702-.247-1.043.077-.185.175-.35.369-.526.554a1.25 1.25 0 0 1 .01-.555c.292-1.421 1.372-2.432 2.737-2.565 2.147-.211 3.756 1.684 3.298 3.873-.515 2.464-1.02 4.93-1.53 7.395-.058.276-.116.553-.178.828-.278 1.233-1.032 1.845-2.303 1.847-3.205.005-6.409.017-9.614-.004-1.852-.012-3.024 1.145-3.36 2.431Zm14.54-23.696c1.492-.405 3.103.708 3.266 2.246.077.722.094 1.44-.234 2.109-.55 1.125-1.69 1.686-2.927 1.47-1.12-.195-1.998-1.172-2.13-2.378-.022-.187-.02-.376-.028-.564.007-1.514.724-2.524 2.053-2.883Zm3.48 6.177-.328 1.596-.784-.84 1.112-.756Zm6.198-7.188c-.474-.379-1.039-.53-1.615-.655h-.707l-.162.057c-.793.151-1.488.5-1.947 1.167-.333.483-.553 1.043-.808 1.54l-.084-.162c-1.037-2.321-3.922-3.161-6.01-1.729-1.647 1.13-2.084 2.893-1.679 4.96.152.781.58 1.428 1.152 2.015-.13.065-.233.115-.334.167-1.05.534-1.835 1.329-2.215 2.451-.222.654-.404 1.338-.472 2.022-.11 1.093-.536 1.975-1.418 2.625-.155.115-.362.222-.547.223-1.684.017-3.369.005-5.054.012-1.005.005-1.773.425-2.217 1.35-.28.58-.252 1.184-.049 1.817l-.375.001c-1.592.008-2.649.816-3.059 2.352-.214.796-.418 1.594-.62 2.393a1.077 1.077 0 0 0-.112.273c-.378 1.445-2.17 8.457-2.543 9.903-.177.688-.08 1.33.346 1.911.337.46.826.676 1.346.842h2.333c.36-.187.748-.336 1.072-.573.406-.294.571-.761.693-1.237.496-1.922.997-3.843 1.497-5.765.02-.079.05-.157.083-.264.23.179.438.365.67.515.576.375 1.22.541 1.905.541h3.315c-.065.165-.11.284-.158.401-.72 1.736-1.444 3.471-2.164 5.207-.244.588-.165.832.367 1.175H30.7c.54-.36.608-.59.35-1.213l-2.158-5.178c-.048-.116-.089-.236-.148-.392h.39c1.025 0 2.05.009 3.074-.002 1.557-.017 2.783-.912 3.17-2.421.355-1.388.608-2.803.903-4.207.198-.944 1.315-6.496 1.761-8.702l.074-.216a1822.63 1822.63 0 0 0 2.041-9.774c.284-1.377-.08-2.537-1.197-3.43"/></svg>