<svg width="136" height="119" viewBox="0 0 136 119" fill="none" xmlns="http://www.w3.org/2000/svg">
<ellipse cx="66.5" cy="59.5" rx="66.5" ry="59.5" fill="#FFD8A8"/>
<path d="M33.184 73L25.664 52.968H25.536C25.5787 53.3947 25.6107 53.9387 25.632 54.6C25.6747 55.2613 25.7067 55.9867 25.728 56.776C25.7493 57.544 25.76 58.3333 25.76 59.144V73H23.104V50.152H27.36L34.4 68.872H34.528L41.696 50.152H45.92V73H43.072V58.952C43.072 58.2053 43.0827 57.4693 43.104 56.744C43.1253 55.9973 43.1573 55.304 43.2 54.664C43.2427 54.0027 43.2747 53.448 43.296 53H43.168L35.552 73H33.184Z" fill="url(#paint0_linear_2_9)"/>
<path d="M52.032 53.848H55.04L58.752 63.608C58.9653 64.184 59.1573 64.7387 59.328 65.272C59.52 65.8053 59.6907 66.328 59.84 66.84C59.9893 67.3307 60.1067 67.8107 60.192 68.28H60.32C60.448 67.7467 60.6507 67.0533 60.928 66.2C61.2053 65.3253 61.4933 64.4507 61.792 63.576L65.28 53.848H68.32L60.928 73.368C60.5227 74.4347 60.0427 75.3627 59.488 76.152C58.9547 76.9627 58.2933 77.5813 57.504 78.008C56.736 78.456 55.7973 78.68 54.688 78.68C54.176 78.68 53.728 78.648 53.344 78.584C52.96 78.5413 52.6293 78.488 52.352 78.424V76.184C52.5867 76.2267 52.864 76.2693 53.184 76.312C53.5253 76.3547 53.8773 76.376 54.24 76.376C54.9013 76.376 55.4667 76.248 55.936 75.992C56.4267 75.7573 56.8427 75.4053 57.184 74.936C57.5253 74.488 57.8133 73.9547 58.048 73.336L58.944 71.064L52.032 53.848Z" fill="url(#paint1_linear_2_9)"/>
<path d="M79.896 58.36C78.68 58.36 77.5813 58.5733 76.6 59C75.6187 59.4053 74.7867 60.0133 74.104 60.824C73.4213 61.6133 72.8987 62.584 72.536 63.736C72.1733 64.8667 71.992 66.1467 71.992 67.576C71.992 69.4533 72.28 71.0853 72.856 72.472C73.4533 73.8587 74.328 74.9253 75.48 75.672C76.6533 76.4187 78.1147 76.792 79.864 76.792C80.8667 76.792 81.816 76.7067 82.712 76.536C83.608 76.3653 84.4827 76.152 85.336 75.896V78.392C84.4827 78.712 83.5973 78.9467 82.68 79.096C81.784 79.2453 80.7067 79.32 79.448 79.32C77.1227 79.32 75.1813 78.84 73.624 77.88C72.0667 76.92 70.8933 75.5547 70.104 73.784C69.336 72.0133 68.952 69.9333 68.952 67.544C68.952 65.816 69.1867 64.2373 69.656 62.808C70.1467 61.3787 70.8507 60.1413 71.768 59.096C72.7067 58.0507 73.8587 57.2507 75.224 56.696C76.5893 56.12 78.1573 55.832 79.928 55.832C81.1013 55.832 82.232 55.9493 83.32 56.184C84.408 56.4187 85.3787 56.7493 86.232 57.176L85.08 59.608C84.376 59.288 83.5867 59 82.712 58.744C81.8587 58.488 80.92 58.36 79.896 58.36ZM96.4348 61.56C98.5254 61.56 100.072 62.0187 101.075 62.936C102.077 63.8533 102.579 65.3147 102.579 67.32V79H100.531L99.9868 76.568H99.8588C99.3681 77.1867 98.8561 77.7093 98.3228 78.136C97.8108 78.5413 97.2134 78.84 96.5308 79.032C95.8694 79.224 95.0588 79.32 94.0988 79.32C93.0748 79.32 92.1468 79.1387 91.3148 78.776C90.5041 78.4133 89.8641 77.8587 89.3948 77.112C88.9254 76.344 88.6908 75.384 88.6908 74.232C88.6908 72.5253 89.3628 71.2133 90.7068 70.296C92.0508 69.3573 94.1201 68.8453 96.9148 68.76L99.8268 68.664V67.64C99.8268 66.2107 99.5174 65.2187 98.8988 64.664C98.2801 64.1093 97.4054 63.832 96.2748 63.832C95.3788 63.832 94.5254 63.9707 93.7148 64.248C92.9041 64.504 92.1468 64.8027 91.4427 65.144L90.5788 63.032C91.3254 62.6267 92.2108 62.2853 93.2348 62.008C94.2588 61.7093 95.3254 61.56 96.4348 61.56ZM97.2668 70.712C95.1334 70.7973 93.6508 71.1387 92.8188 71.736C92.0081 72.3333 91.6028 73.176 91.6028 74.264C91.6028 75.224 91.8908 75.928 92.4668 76.376C93.0641 76.824 93.8214 77.048 94.7388 77.048C96.1894 77.048 97.3948 76.6533 98.3548 75.864C99.3148 75.0533 99.7948 73.816 99.7948 72.152V70.616L97.2668 70.712ZM115.876 61.528C116.196 61.528 116.538 61.5493 116.9 61.592C117.284 61.6133 117.615 61.656 117.892 61.72L117.54 64.312C117.263 64.248 116.954 64.1947 116.612 64.152C116.292 64.1093 115.983 64.088 115.684 64.088C115.023 64.088 114.394 64.2267 113.796 64.504C113.199 64.7813 112.666 65.176 112.196 65.688C111.727 66.1787 111.354 66.776 111.076 67.48C110.82 68.184 110.692 68.9733 110.692 69.848V79H107.876V61.848H110.18L110.5 64.984H110.628C110.991 64.344 111.428 63.768 111.94 63.256C112.452 62.7227 113.039 62.3067 113.7 62.008C114.362 61.688 115.087 61.528 115.876 61.528Z" fill="#FF922B"/>
<defs>
<linearGradient id="paint0_linear_2_9" x1="38" y1="39" x2="38" y2="87" gradientUnits="userSpaceOnUse">
<stop offset="0.109375" stop-color="#1864AB" stop-opacity="0"/>
<stop offset="0.598958" stop-color="#339AF0"/>
</linearGradient>
<linearGradient id="paint1_linear_2_9" x1="73.5" y1="37" x2="73.5" y2="66" gradientUnits="userSpaceOnUse">
<stop offset="0.109375" stop-color="#1864AB" stop-opacity="0"/>
<stop offset="0.598958" stop-color="#339AF0"/>
</linearGradient>
</defs>
</svg>
