<svg width="1594" height="1594" viewBox="0 0 1594 1594" fill="none" xmlns="http://www.w3.org/2000/svg">
<g filter="url(#filter0_i_16_25)">
<rect width="1594" height="1594" rx="113" fill="#001A64"/>
</g>
<g filter="url(#filter1_d_16_25)">
<path d="M745.946 704.148L770.485 657.797V910H745.946V704.148ZM795.024 610.083L819.562 563.733V910H795.024V610.083ZM844.101 517.382L868.64 470.69V910H844.101V517.382ZM679.488 692.56L665.514 666.999L834.558 345.611H862.164L679.488 692.56ZM651.2 639.053L636.886 613.151L778.665 345.611H806.611L651.2 639.053ZM486.928 660.524L511.466 706.875V910H486.928V660.524ZM437.85 567.141L462.389 613.492V910H437.85V567.141ZM388.773 473.758L413.312 520.449V910H388.773V473.758ZM587.127 762.768H559.521L364.234 392.303V910H339.696V345.611H367.302L587.127 762.768ZM642.68 762.768H614.733L395.248 345.611H423.195L642.68 762.768ZM893.178 392.303L697.892 762.768H669.945L450.801 345.611H478.407L684.259 736.866L889.77 345.611H917.717V910H893.178V392.303Z" fill="url(#paint0_linear_16_25)"/>
</g>
<g filter="url(#filter2_d_16_25)">
<path d="M554.86 1062.64L544.015 1069.81C537.398 1060.01 528.759 1052.29 518.098 1046.65C507.559 1040.89 496.102 1038.01 483.725 1038.01C463.628 1038.01 446.472 1045.12 432.257 1059.34C418.043 1073.55 410.935 1090.71 410.935 1110.8C410.935 1130.9 418.043 1148.06 432.257 1162.27C446.472 1176.49 463.628 1183.59 483.725 1183.59C496.102 1183.59 507.559 1180.71 518.098 1174.95C528.759 1169.19 537.398 1161.41 544.015 1151.61L554.677 1159.33C546.834 1170.85 536.663 1179.98 524.164 1186.72C511.664 1193.46 498.185 1196.83 483.725 1196.83C472.083 1196.83 460.932 1194.56 450.271 1190.03C439.732 1185.49 430.603 1179.37 422.883 1171.65C415.163 1163.92 409.036 1154.8 404.502 1144.26C399.968 1133.6 397.701 1122.44 397.701 1110.8C397.701 1099.16 399.968 1088.07 404.502 1077.53C409.036 1066.87 415.163 1057.68 422.883 1049.96C430.603 1042.24 439.732 1036.11 450.271 1031.58C460.932 1027.05 472.083 1024.78 483.725 1024.78C498.307 1024.78 511.848 1028.21 524.348 1035.07C536.847 1041.81 547.018 1051 554.86 1062.64ZM576.734 1047.57L565.705 1054.74C556.637 1041.51 544.873 1031.03 530.413 1023.31C516.076 1015.47 500.513 1011.54 483.725 1011.54C465.711 1011.54 449.107 1016.02 433.912 1024.96C418.717 1033.79 406.646 1045.79 397.701 1060.99C388.878 1076.19 384.466 1092.79 384.466 1110.8C384.466 1128.82 388.878 1145.42 397.701 1160.62C406.646 1175.81 418.717 1187.88 433.912 1196.83C449.107 1205.65 465.711 1210.06 483.725 1210.06C500.513 1210.06 516.137 1206.14 530.597 1198.3C545.057 1190.46 556.821 1179.86 565.889 1166.5L576.734 1174.03C566.441 1189.23 553.084 1201.24 536.663 1210.06C520.365 1218.88 502.719 1223.3 483.725 1223.3C463.383 1223.3 444.573 1218.27 427.294 1208.22C410.016 1198.18 396.353 1184.51 386.304 1167.23C376.256 1149.96 371.232 1131.15 371.232 1110.8C371.232 1090.46 376.256 1071.65 386.304 1054.37C396.353 1037.09 410.016 1023.43 427.294 1013.38C444.573 1003.33 463.383 998.31 483.725 998.31C502.719 998.31 520.365 1002.72 536.663 1011.54C553.084 1020.37 566.441 1032.38 576.734 1047.57ZM598.792 1032.87L587.763 1040.04C576.244 1023.12 561.294 1009.77 542.913 999.964C524.654 990.038 504.925 985.075 483.725 985.075C466.692 985.075 450.394 988.384 434.831 995.001C419.268 1001.62 405.85 1010.56 394.576 1021.84C383.424 1032.99 374.54 1046.35 367.923 1061.91C361.306 1077.47 357.997 1093.77 357.997 1110.8C357.997 1127.84 361.306 1144.13 367.923 1159.7C374.54 1175.26 383.424 1188.68 394.576 1199.95C405.85 1211.1 419.268 1219.99 434.831 1226.61C450.394 1233.22 466.692 1236.53 483.725 1236.53C505.047 1236.53 524.838 1231.57 543.096 1221.64C561.355 1211.72 576.244 1198.3 587.763 1181.39L598.424 1189.29C585.68 1207.92 569.198 1222.68 548.978 1233.59C528.882 1244.37 507.13 1249.77 483.725 1249.77C458.604 1249.77 435.382 1243.58 414.06 1231.2C392.738 1218.7 375.827 1201.79 363.328 1180.47C350.951 1159.15 344.763 1135.92 344.763 1110.8C344.763 1085.68 350.951 1062.46 363.328 1041.14C375.827 1019.82 392.738 1002.97 414.06 990.59C435.382 978.09 458.604 971.841 483.725 971.841C507.253 971.841 529.127 977.355 549.346 988.384C569.565 999.29 586.047 1014.12 598.792 1032.87ZM620.482 1017.79L609.453 1024.96C595.483 1004.5 577.408 988.323 555.228 976.436C533.171 964.549 509.336 958.606 483.725 958.606C463.138 958.606 443.409 962.65 424.537 970.738C405.788 978.703 389.613 989.487 376.011 1003.09C362.409 1016.69 351.564 1032.93 343.476 1051.8C335.511 1070.55 331.528 1090.22 331.528 1110.8C331.528 1131.39 335.511 1151.12 343.476 1169.99C351.564 1188.74 362.409 1204.92 376.011 1218.52C389.613 1232.12 405.788 1242.96 424.537 1251.05C443.409 1259.02 463.138 1263 483.725 1263C509.336 1263 533.232 1257 555.412 1244.99C577.592 1232.98 595.667 1216.74 609.637 1196.28L620.298 1204.36C605.103 1226.42 585.496 1243.94 561.478 1256.93C537.459 1269.8 511.542 1276.23 483.725 1276.23C461.3 1276.23 439.855 1271.82 419.39 1263C399.049 1254.3 381.464 1242.6 366.636 1227.89C351.931 1213.06 340.167 1195.48 331.344 1175.14C322.644 1154.67 318.294 1133.23 318.294 1110.8C318.294 1088.38 322.644 1066.99 331.344 1046.65C340.167 1026.19 351.931 1008.6 366.636 993.898C381.464 979.071 399.049 967.307 419.39 958.606C439.855 949.783 461.3 945.372 483.725 945.372C511.664 945.372 537.643 951.866 561.661 964.856C585.68 977.845 605.286 995.491 620.482 1017.79ZM749.224 1173.67L754.555 1160.43H799.772L805.103 1173.67H749.224ZM738.93 1200.14L744.077 1186.9H810.066L815.764 1200.14H738.93ZM728.637 1226.61L733.784 1213.37H820.543L826.058 1226.61H728.637ZM621.107 1263H606.769L727.166 958.606H741.504L861.717 1263H847.564L734.335 976.436L621.107 1263ZM735.989 1007.87L743.526 1024.78L649.414 1263H635.26L735.989 1007.87ZM750.694 1042.79L757.679 1060.99L678.088 1263H663.751L750.694 1042.79ZM764.664 1079.19L771.649 1097.75L706.396 1263H692.242L764.664 1079.19ZM947.19 1263H932.853L812.639 958.606H826.793L947.19 1263ZM798.302 958.606L918.699 1263H904.546L784.148 958.606H798.302ZM769.811 958.606L890.208 1263H875.871L755.657 958.606H769.811ZM1042.11 1111.54H1121.89C1134.02 1111.54 1144.25 1107.62 1152.58 1099.77C1161.04 1091.93 1165.27 1080.78 1165.27 1066.32C1165.27 1055.66 1160.85 1046.1 1152.03 1037.65C1143.21 1029.07 1133.16 1024.78 1121.89 1024.78H1008.29V1263H995.055V1011.54H1121.89C1136.84 1011.54 1150.01 1017.12 1161.41 1028.27C1172.8 1039.3 1178.5 1051.98 1178.5 1066.32C1178.5 1083.97 1172.99 1098.12 1161.96 1108.78C1150.93 1119.44 1137.57 1124.77 1121.89 1124.77H1042.11V1111.54ZM1042.11 1138.01H1121.89C1141 1138.01 1157.42 1131.33 1171.15 1117.97C1184.87 1104.49 1191.73 1087.28 1191.73 1066.32C1191.73 1048.31 1184.69 1032.5 1170.6 1018.9C1156.63 1005.17 1140.39 998.31 1121.89 998.31H981.821V1263H968.586V985.075H1121.89C1136.47 985.075 1150.13 988.813 1162.88 996.288C1175.74 1003.76 1185.98 1013.81 1193.57 1026.43C1201.17 1038.93 1204.97 1052.23 1204.97 1066.32C1204.97 1090.46 1196.76 1110.68 1180.34 1126.98C1164.04 1143.15 1144.56 1151.24 1121.89 1151.24H1042.11V1138.01ZM1042.11 1164.48H1121.89C1139.04 1164.48 1154.97 1160.25 1169.68 1151.79C1184.38 1143.34 1196.15 1131.57 1204.97 1116.5C1213.79 1101.31 1218.2 1084.58 1218.2 1066.32C1218.2 1049.78 1213.79 1034.28 1204.97 1019.82C1196.27 1005.23 1184.5 993.592 1169.68 984.891C1154.85 976.191 1138.92 971.841 1121.89 971.841H955.351V1263H942.117V958.606H1121.89C1141.12 958.606 1159.2 963.569 1176.11 973.495C1193.02 983.298 1206.44 996.533 1216.37 1013.2C1226.41 1029.74 1231.44 1047.45 1231.44 1066.32C1231.44 1088.13 1226.72 1107.31 1217.28 1123.85C1207.97 1140.4 1195.29 1153.33 1179.24 1162.64L1213.42 1263H1199.45L1166.74 1168.89C1161.83 1170.85 1158.1 1172.2 1155.52 1172.93L1186.22 1263H1172.25L1142.29 1176.06C1141.19 1176.3 1137.26 1176.73 1130.52 1177.34L1159.02 1263H1145.05L1116.92 1177.71H1104.98L1131.81 1263H1117.84L1090.82 1177.71H1042.11V1164.48ZM1034.76 1263H1021.52V1038.01H1121.89C1130.1 1038.01 1137.14 1040.83 1143.02 1046.47C1149.03 1051.98 1152.03 1058.6 1152.03 1066.32C1152.03 1087.64 1141.98 1098.3 1121.89 1098.3H1042.11V1085.07H1121.89C1127.16 1085.07 1131.26 1083.72 1134.2 1081.03C1137.26 1078.21 1138.8 1073.31 1138.8 1066.32C1138.8 1062.03 1137.14 1058.48 1133.83 1055.66C1130.65 1052.72 1126.66 1051.25 1121.89 1051.25H1034.76V1263Z" fill="url(#paint1_linear_16_25)"/>
</g>
<g filter="url(#filter3_d_16_25)">
<path d="M1067.9 720.556L1059.77 738.393L962.23 534.735H978.487L1067.9 720.556ZM1084.15 684.882L1075.8 702.719L994.743 534.735H1011L1084.15 684.882ZM1100.41 649.433L1092.28 667.27L1027.26 534.735H1043.51L1100.41 649.433ZM1079.86 782.647L1197.5 534.735H1213.75L1096.12 782.647V908.635H1079.86V782.647ZM1112.38 782.647L1230.01 534.735H1246.27L1128.63 782.647V908.635H1112.38V782.647ZM1144.89 782.647L1262.52 534.735H1278.78L1161.15 782.647V908.635H1144.89V782.647ZM1055.48 765.487L1164.99 534.735H1181.24L1063.61 782.647V908.635H1047.35V782.647L929.717 534.735H945.973L1055.48 765.487Z" fill="url(#paint2_linear_16_25)"/>
</g>
<defs>
<filter id="filter0_i_16_25" x="0" y="0" width="1760" height="1652" filterUnits="userSpaceOnUse" color-interpolation-filters="sRGB">
<feFlood flood-opacity="0" result="BackgroundImageFix"/>
<feBlend mode="normal" in="SourceGraphic" in2="BackgroundImageFix" result="shape"/>
<feColorMatrix in="SourceAlpha" type="matrix" values="0 0 0 0 0 0 0 0 0 0 0 0 0 0 0 0 0 0 127 0" result="hardAlpha"/>
<feMorphology radius="14" operator="dilate" in="SourceAlpha" result="effect1_innerShadow_16_25"/>
<feOffset dx="168" dy="58"/>
<feGaussianBlur stdDeviation="90"/>
<feComposite in2="hardAlpha" operator="arithmetic" k2="-1" k3="1"/>
<feColorMatrix type="matrix" values="0 0 0 0 0 0 0 0 0 0 0 0 0 0 0 0 0 0 0.25 0"/>
<feBlend mode="normal" in2="shape" result="effect1_innerShadow_16_25"/>
</filter>
<filter id="filter1_d_16_25" x="310.696" y="328.46" width="618.021" height="604.389" filterUnits="userSpaceOnUse" color-interpolation-filters="sRGB">
<feFlood flood-opacity="0" result="BackgroundImageFix"/>
<feColorMatrix in="SourceAlpha" type="matrix" values="0 0 0 0 0 0 0 0 0 0 0 0 0 0 0 0 0 0 127 0" result="hardAlpha"/>
<feOffset dx="-9" dy="2.84893"/>
<feGaussianBlur stdDeviation="10"/>
<feComposite in2="hardAlpha" operator="out"/>
<feColorMatrix type="matrix" values="0 0 0 0 0 0 0 0 0 0 0 0 0 0 0 0 0 0 0.25 0"/>
<feBlend mode="normal" in2="BackgroundImageFix" result="effect1_dropShadow_16_25"/>
<feBlend mode="normal" in="SourceGraphic" in2="effect1_dropShadow_16_25" result="shape"/>
</filter>
<filter id="filter2_d_16_25" x="316.757" y="945.372" width="916.218" height="333.936" filterUnits="userSpaceOnUse" color-interpolation-filters="sRGB">
<feFlood flood-opacity="0" result="BackgroundImageFix"/>
<feColorMatrix in="SourceAlpha" type="matrix" values="0 0 0 0 0 0 0 0 0 0 0 0 0 0 0 0 0 0 127 0" result="hardAlpha"/>
<feOffset dy="1.53652"/>
<feGaussianBlur stdDeviation="0.768262"/>
<feComposite in2="hardAlpha" operator="out"/>
<feColorMatrix type="matrix" values="0 0 0 0 0 0 0 0 0 0 0 0 0 0 0 0 0 0 0.25 0"/>
<feBlend mode="normal" in2="BackgroundImageFix" result="effect1_dropShadow_16_25"/>
<feBlend mode="normal" in="SourceGraphic" in2="effect1_dropShadow_16_25" result="shape"/>
</filter>
<filter id="filter3_d_16_25" x="900.717" y="517.584" width="389.064" height="413.901" filterUnits="userSpaceOnUse" color-interpolation-filters="sRGB">
<feFlood flood-opacity="0" result="BackgroundImageFix"/>
<feColorMatrix in="SourceAlpha" type="matrix" values="0 0 0 0 0 0 0 0 0 0 0 0 0 0 0 0 0 0 127 0" result="hardAlpha"/>
<feOffset dx="-9" dy="2.85"/>
<feGaussianBlur stdDeviation="10"/>
<feComposite in2="hardAlpha" operator="out"/>
<feColorMatrix type="matrix" values="0 0 0 0 0 0 0 0 0 0 0 0 0 0 0 0 0 0 0.25 0"/>
<feBlend mode="normal" in2="BackgroundImageFix" result="effect1_dropShadow_16_25"/>
<feBlend mode="normal" in="SourceGraphic" in2="effect1_dropShadow_16_25" result="shape"/>
</filter>
<linearGradient id="paint0_linear_16_25" x1="308" y1="225.02" x2="1024.66" y2="1040.04" gradientUnits="userSpaceOnUse">
<stop offset="0.315838" stop-color="#DB6A00"/>
<stop offset="0.7501" stop-color="#F0C860"/>
</linearGradient>
<linearGradient id="paint1_linear_16_25" x1="150.5" y1="1097" x2="1357" y2="1263" gradientUnits="userSpaceOnUse">
<stop offset="0.117498" stop-color="#02A490"/>
<stop offset="0.386138" stop-color="#38F2DC"/>
<stop offset="0.926403" stop-color="#47AB9F"/>
</linearGradient>
<linearGradient id="paint2_linear_16_25" x1="1041" y1="933.5" x2="1135.5" y2="584.5" gradientUnits="userSpaceOnUse">
<stop stop-color="#FF922C"/>
<stop offset="1" stop-color="#F1C861"/>
</linearGradient>
</defs>
</svg>
